<svg width="32" height="32" viewBox="0 0 32 32" fill="none" xmlns="http://www.w3.org/2000/svg">
<g clip-path="url(#clip0_934_92425)">
<g clip-path="url(#clip1_934_92425)">
<path d="M16.3281 24.168C20.6083 24.168 24.0781 20.6982 24.0781 16.418C24.0781 12.1378 20.6083 8.66797 16.3281 8.66797C12.0479 8.66797 8.57812 12.1378 8.57812 16.418C8.57812 20.6982 12.0479 24.168 16.3281 24.168Z" fill="white"/>
<path d="M16.3323 8.6719H29.7535C28.3935 6.3155 26.4371 4.3587 24.0809 2.99826C21.7248 1.63782 19.052 0.921685 16.3313 0.921875C13.6106 0.922065 10.9379 1.63857 8.58194 2.99934C6.22599 4.36011 4.26983 6.31719 2.91016 8.67378L9.62075 20.2969L9.62676 20.2954C8.94411 19.1182 8.58387 17.7818 8.58234 16.421C8.58081 15.0602 8.93805 13.7231 9.61805 12.5444C10.298 11.3657 11.2768 10.3871 12.4556 9.70719C13.6343 9.02732 14.9715 8.67023 16.3323 8.6719Z" fill="url(#paint0_linear_934_92425)"/>
<path d="M16.3307 22.556C19.7192 22.556 22.4661 19.8091 22.4661 16.4206C22.4661 13.0321 19.7192 10.2852 16.3307 10.2852C12.9422 10.2852 10.1953 13.0321 10.1953 16.4206C10.1953 19.8091 12.9422 22.556 16.3307 22.556Z" fill="#1A73E8"/>
<path d="M23.0376 20.2967L16.327 31.9199C19.0477 31.9202 21.7205 31.2043 24.0768 29.844C26.433 28.4838 28.3896 26.5271 29.7497 24.1708C31.1099 21.8145 31.8257 19.1417 31.8252 16.421C31.8248 13.7003 31.108 11.0277 29.747 8.67188H16.3258L16.3242 8.67788C17.685 8.67526 19.0225 9.03143 20.2017 9.71049C21.381 10.3896 22.3604 11.3675 23.0412 12.5458C23.7219 13.724 24.0801 15.0609 24.0795 16.4217C24.0788 17.7825 23.7195 19.1191 23.0376 20.2967Z" fill="url(#paint1_linear_934_92425)"/>
<path d="M9.61593 20.2989L2.90533 8.67578C1.54464 11.0318 0.828226 13.7045 0.828125 16.4252C0.828024 19.1459 1.54424 21.8187 2.90475 24.1748C4.26527 26.5309 6.22213 28.4873 8.57856 29.8472C10.935 31.2071 13.608 31.9227 16.3287 31.9219L23.0392 20.2988L23.0349 20.2944C22.3568 21.4742 21.3796 22.4543 20.2019 23.136C19.0242 23.8178 17.6875 24.177 16.3267 24.1774C14.9659 24.1779 13.6291 23.8196 12.4509 23.1387C11.2727 22.4577 10.2949 21.4782 9.61593 20.2989Z" fill="url(#paint2_linear_934_92425)"/>
</g>
</g>
<defs>
<linearGradient id="paint0_linear_934_92425" x1="2.91016" y1="10.6094" x2="29.7535" y2="10.6094" gradientUnits="userSpaceOnUse">
<stop stop-color="#D93025"/>
<stop offset="1" stop-color="#EA4335"/>
</linearGradient>
<linearGradient id="paint1_linear_934_92425" x1="14.2094" y1="31.7126" x2="27.6311" y2="8.4656" gradientUnits="userSpaceOnUse">
<stop stop-color="#FCC934"/>
<stop offset="1" stop-color="#FBBC04"/>
</linearGradient>
<linearGradient id="paint2_linear_934_92425" x1="18.005" y1="30.9541" x2="4.58327" y2="7.70703" gradientUnits="userSpaceOnUse">
<stop stop-color="#1E8E3E"/>
<stop offset="1" stop-color="#34A853"/>
</linearGradient>
<clipPath id="clip0_934_92425">
<rect width="31" height="31" fill="white" transform="translate(0.828125 0.921875)"/>
</clipPath>
<clipPath id="clip1_934_92425">
<rect width="31" height="31" fill="white" transform="translate(0.828125 0.921875)"/>
</clipPath>
</defs>
</svg>
