<svg width="32" height="32" viewBox="0 0 32 32" fill="none" xmlns="http://www.w3.org/2000/svg">
<g clip-path="url(#clip0_934_92437)">
<g clip-path="url(#clip1_934_92437)">
<path d="M29.9972 11.4159C29.3562 9.87342 28.0558 8.20803 27.0376 7.68157C27.7637 9.0877 28.2677 10.5978 28.5317 12.1582L28.5343 12.1829C26.8663 8.02607 24.0387 6.34735 21.7281 2.69681C21.6112 2.51219 21.4944 2.32719 21.3805 2.13191C21.3155 2.02037 21.2633 1.91988 21.218 1.82738C21.1222 1.64183 21.0483 1.44573 20.998 1.24306C20.998 1.23371 20.9947 1.22466 20.9885 1.21764C20.9823 1.21062 20.9738 1.20612 20.9645 1.205C20.9554 1.2025 20.9458 1.2025 20.9367 1.205C20.9348 1.205 20.9317 1.20842 20.9295 1.20918C20.9272 1.20994 20.9222 1.21337 20.9188 1.21489L20.9245 1.205C17.2188 3.37477 15.9607 7.39075 15.8465 9.40064C14.3661 9.50214 12.9506 10.0475 11.7848 10.9655C11.6632 10.8626 11.5362 10.7662 11.4042 10.677C11.068 9.50035 11.0537 8.25507 11.3627 7.07099C10.0018 7.73022 8.79251 8.6648 7.81148 9.81556H7.80463C7.21993 9.07441 7.26104 6.63057 7.29454 6.1201C7.12157 6.18962 6.95645 6.27728 6.80196 6.38161C6.2858 6.75 5.80326 7.16336 5.36002 7.61686C4.85491 8.12897 4.39359 8.68248 3.98088 9.2716V9.27388V9.27122C3.03247 10.6156 2.35972 12.1344 2.00144 13.7402L1.98164 13.8376C1.95386 13.9674 1.85374 14.6176 1.83661 14.7588C1.83661 14.7699 1.83433 14.7802 1.83319 14.7912C1.70405 15.4624 1.62402 16.1422 1.59375 16.8251V16.9012C1.60027 20.5931 2.99062 24.1483 5.49034 26.8652C7.99006 29.582 11.4175 31.2631 15.096 31.5764C18.7746 31.8897 22.4369 30.8125 25.3601 28.5575C28.2833 26.3026 30.2549 23.0336 30.8857 19.3961C30.9104 19.2057 30.9306 19.0173 30.9527 18.8251C31.2565 16.3134 30.9276 13.7657 29.9957 11.4136L29.9972 11.4159ZM12.993 22.9651C13.0619 22.9983 13.1267 23.034 13.1975 23.0656L13.2077 23.0721C13.1362 23.0378 13.0646 23.0022 12.993 22.9651ZM28.5347 12.1871V12.173L28.5374 12.1886L28.5347 12.1871Z" fill="url(#paint0_linear_934_92437)"/>
<path d="M29.9981 11.414C29.357 9.87154 28.0567 8.20614 27.0384 7.67969C27.7645 9.08581 28.2685 10.5959 28.5325 12.1563V12.1704L28.5352 12.186C29.6725 15.4403 29.508 19.0082 28.0761 22.1441C26.3852 25.7722 22.2939 29.4908 15.8873 29.3081C8.96689 29.1121 2.86869 23.9751 1.73051 17.2488C1.52305 16.1879 1.73051 15.65 1.83481 14.7878C1.69254 15.4575 1.61314 16.1391 1.59766 16.8236V16.8997C1.60418 20.5916 2.99453 24.1468 5.49425 26.8637C7.99396 29.5805 11.4214 31.2615 15.0999 31.5749C18.7785 31.8882 22.4408 30.811 25.364 28.556C28.2872 26.3011 30.2588 23.0321 30.8896 19.3945C30.9143 19.2042 30.9345 19.0158 30.9566 18.8236C31.2605 16.3119 30.9315 13.7642 29.9996 11.4121L29.9981 11.414Z" fill="url(#paint1_radial_934_92437)"/>
<path d="M29.9981 11.414C29.357 9.87154 28.0567 8.20614 27.0384 7.67969C27.7645 9.08581 28.2685 10.5959 28.5325 12.1563V12.1704L28.5352 12.186C29.6725 15.4403 29.508 19.0082 28.0761 22.1441C26.3852 25.7722 22.2939 29.4908 15.8873 29.3081C8.96689 29.1121 2.86869 23.9751 1.73051 17.2488C1.52305 16.1879 1.73051 15.65 1.83481 14.7878C1.69254 15.4575 1.61314 16.1391 1.59766 16.8236V16.8997C1.60418 20.5916 2.99453 24.1468 5.49425 26.8637C7.99396 29.5805 11.4214 31.2615 15.0999 31.5749C18.7785 31.8882 22.4408 30.811 25.364 28.556C28.2872 26.3011 30.2588 23.0321 30.8896 19.3945C30.9143 19.2042 30.9345 19.0158 30.9566 18.8236C31.2605 16.3119 30.9315 13.7642 29.9996 11.4121L29.9981 11.414Z" fill="url(#paint2_radial_934_92437)"/>
<path d="M22.8258 13.1483C22.8578 13.1707 22.8875 13.1932 22.9176 13.2157C22.547 12.5585 22.0857 11.9569 21.5472 11.4285C16.9602 6.84149 20.3455 1.48558 20.9161 1.2115L20.9218 1.20312C17.216 3.3729 15.9579 7.38888 15.8438 9.39877C16.0158 9.38697 16.1863 9.37251 16.3622 9.37251C17.677 9.37505 18.9676 9.72567 20.1029 10.3887C21.2382 11.0518 22.1777 12.0037 22.8258 13.1475V13.1483Z" fill="url(#paint3_radial_934_92437)"/>
<path d="M16.3693 14.065C16.3449 14.432 15.0484 15.6977 14.595 15.6977C10.4001 15.6977 9.71875 18.2356 9.71875 18.2356C9.90451 20.3726 11.3937 22.1335 13.1938 23.0624C13.276 23.105 13.3594 23.1434 13.4428 23.1811C13.5872 23.2451 13.7316 23.3042 13.876 23.3585C14.4938 23.5771 15.1408 23.702 15.7956 23.7289C23.15 24.0738 24.5737 14.9356 19.2669 12.2824C20.5187 12.1195 21.7864 12.4273 22.8242 13.1461C22.176 12.0022 21.2365 11.0504 20.1012 10.3873C18.9659 9.72426 17.6753 9.37364 16.3605 9.37109C16.1854 9.37109 16.0141 9.38556 15.8421 9.39736C14.3617 9.49885 12.9462 10.0442 11.7804 10.9623C12.0054 11.1526 12.2593 11.4069 12.7941 11.9341C13.7953 12.9204 16.3628 13.9421 16.3685 14.062L16.3693 14.065Z" fill="url(#paint4_radial_934_92437)"/>
<path d="M16.3693 14.065C16.3449 14.432 15.0484 15.6977 14.595 15.6977C10.4001 15.6977 9.71875 18.2356 9.71875 18.2356C9.90451 20.3726 11.3937 22.1335 13.1938 23.0624C13.276 23.105 13.3594 23.1434 13.4428 23.1811C13.5872 23.2451 13.7316 23.3042 13.876 23.3585C14.4938 23.5771 15.1408 23.702 15.7956 23.7289C23.15 24.0738 24.5737 14.9356 19.2669 12.2824C20.5187 12.1195 21.7864 12.4273 22.8242 13.1461C22.176 12.0022 21.2365 11.0504 20.1012 10.3873C18.9659 9.72426 17.6753 9.37364 16.3605 9.37109C16.1854 9.37109 16.0141 9.38556 15.8421 9.39736C14.3617 9.49885 12.9462 10.0442 11.7804 10.9623C12.0054 11.1526 12.2593 11.4069 12.7941 11.9341C13.7953 12.9204 16.3628 13.9421 16.3685 14.062L16.3693 14.065Z" fill="url(#paint5_radial_934_92437)"/>
<path d="M11.0928 10.4742C11.2124 10.5503 11.311 10.6166 11.3974 10.6763C11.0612 9.49967 11.0469 8.25439 11.3559 7.07031C9.99496 7.72954 8.78572 8.66412 7.80469 9.81488C7.87663 9.81298 10.0167 9.77453 11.0928 10.4742Z" fill="url(#paint6_radial_934_92437)"/>
<path d="M1.72658 17.2506C2.86514 23.9769 8.96296 29.1158 15.8834 29.31C22.2899 29.4912 26.382 25.7721 28.0722 22.1459C29.5041 19.0101 29.6686 15.4421 28.5313 12.1878V12.1737C28.5313 12.1627 28.529 12.1562 28.5313 12.1596L28.5339 12.1844C29.0573 15.6016 27.3192 18.9107 24.6017 21.1528L24.5933 21.1718C19.2983 25.4847 14.2317 23.7732 13.2077 23.0751C13.1362 23.0408 13.0646 23.0052 12.993 22.9681C9.90624 21.4927 8.63064 18.6819 8.90472 16.2685C8.17198 16.2793 7.45184 16.0774 6.83154 15.6872C6.21123 15.297 5.7174 14.7353 5.40986 14.0702C6.22021 13.5738 7.14418 13.2931 8.09373 13.255C9.04327 13.2169 9.98676 13.4226 10.8343 13.8524C12.5813 14.6454 14.5691 14.7235 16.3729 14.0702C16.3672 13.9503 13.7996 12.9282 12.7985 11.9423C12.2637 11.4151 12.0098 11.1612 11.7848 10.9704C11.6632 10.8675 11.5361 10.7711 11.4041 10.6819C11.3166 10.6221 11.218 10.5574 11.0996 10.4798C10.0235 9.78011 7.8834 9.81856 7.8126 9.82046H7.80575C7.22105 9.07932 7.26216 6.63547 7.29566 6.125C7.12269 6.19452 6.95757 6.28218 6.80308 6.38651C6.28692 6.7549 5.80438 7.16826 5.36114 7.62176C4.85422 8.13243 4.39099 8.68467 3.97629 9.27269C3.02788 10.617 2.35513 12.1355 1.99685 13.7413C1.98962 13.7714 1.46545 16.0629 1.72391 17.2514L1.72658 17.2506Z" fill="url(#paint7_radial_934_92437)"/>
<path d="M21.547 11.4267C22.0856 11.9557 22.5469 12.558 22.9174 13.2158C22.9984 13.2771 23.0742 13.338 23.1385 13.397C26.4834 16.4804 24.7308 20.8389 24.6003 21.1473C27.3174 18.9086 29.054 15.5972 28.5325 12.1789C26.8637 8.01826 24.0331 6.33954 21.7263 2.689C21.6094 2.50438 21.4925 2.31937 21.3787 2.12409C21.3136 2.01256 21.2615 1.91207 21.2162 1.81956C21.1204 1.63401 21.0465 1.43792 20.9962 1.23525C20.9962 1.2259 20.9928 1.21685 20.9867 1.20983C20.9805 1.20281 20.9719 1.19831 20.9627 1.19718C20.9536 1.19469 20.944 1.19469 20.9349 1.19718C20.933 1.19718 20.9299 1.20061 20.9276 1.20137C20.9253 1.20213 20.9204 1.20556 20.917 1.20708C20.3464 1.47773 16.9619 6.83707 21.5489 11.4202L21.547 11.4267Z" fill="url(#paint8_radial_934_92437)"/>
<path d="M23.1386 13.3971C23.0742 13.3381 22.9985 13.2772 22.9174 13.2159C22.8873 13.1934 22.8576 13.171 22.8257 13.1485C21.7879 12.4297 20.5202 12.1219 19.2684 12.2848C24.5748 14.938 23.1511 24.0739 15.7971 23.7313C15.1423 23.7044 14.4953 23.5795 13.8775 23.3609C13.7331 23.3068 13.5887 23.2477 13.4443 23.1835C13.3609 23.1454 13.2775 23.1074 13.1953 23.0647L13.2056 23.0712C14.2311 23.7712 19.2962 25.4816 24.5912 21.1679L24.5996 21.1489C24.7316 20.8405 26.4842 16.482 23.1378 13.3986L23.1386 13.3971Z" fill="url(#paint9_radial_934_92437)"/>
<path d="M9.71877 18.2323C9.71877 18.2323 10.3998 15.6945 14.595 15.6945C15.0484 15.6945 16.3461 14.4288 16.3693 14.0618C14.5655 14.7152 12.5776 14.637 10.8307 13.8441C9.98315 13.4142 9.03966 13.2086 8.09011 13.2467C7.14057 13.2848 6.2166 13.5654 5.40625 14.0618C5.71379 14.727 6.20762 15.2887 6.82792 15.6789C7.44823 16.069 8.16837 16.2709 8.9011 16.2601C8.62779 18.6724 9.90301 21.4828 12.9894 22.9598C13.0583 22.9929 13.123 23.0287 13.1938 23.0603C11.3922 22.1296 9.90453 20.3694 9.71877 18.2335V18.2323Z" fill="url(#paint10_radial_934_92437)"/>
<path d="M29.9964 11.4159C29.3554 9.87342 28.0551 8.20803 27.0368 7.68157C27.7629 9.0877 28.2669 10.5978 28.5309 12.1582L28.5336 12.1829C26.8655 8.02607 24.0379 6.34735 21.7273 2.69681C21.6105 2.51219 21.4936 2.32719 21.3798 2.13191C21.3147 2.02037 21.2625 1.91988 21.2172 1.82738C21.1214 1.64183 21.0476 1.44573 20.9972 1.24306C20.9973 1.23371 20.9939 1.22466 20.9877 1.21764C20.9816 1.21062 20.973 1.20612 20.9637 1.205C20.9546 1.2025 20.945 1.2025 20.9359 1.205C20.934 1.205 20.931 1.20842 20.9287 1.20918C20.9264 1.20994 20.9215 1.21337 20.918 1.21489L20.9238 1.205C17.218 3.37477 15.9599 7.39075 15.8457 9.40064C16.0178 9.38884 16.1883 9.37438 16.3642 9.37438C17.6789 9.37692 18.9696 9.72755 20.1049 10.3906C21.2402 11.0537 22.1797 12.0055 22.8278 13.1494C21.7901 12.4306 20.5224 12.1228 19.2705 12.2857C24.577 14.9389 23.1533 24.0748 15.7993 23.7322C15.1445 23.7053 14.4974 23.5804 13.8796 23.3618C13.7352 23.3077 13.5908 23.2486 13.4464 23.1844C13.363 23.1463 13.2797 23.1083 13.1975 23.0656L13.2077 23.0721C13.1362 23.0378 13.0646 23.0022 12.993 22.9651C13.0619 22.9983 13.1267 23.034 13.1975 23.0656C11.3958 22.1345 9.90816 20.3744 9.7224 18.2388C9.7224 18.2388 10.4034 15.701 14.5987 15.701C15.052 15.701 16.3497 14.4353 16.3729 14.0683C16.3672 13.9484 13.7997 12.9263 12.7985 11.9404C12.2637 11.4132 12.0098 11.1593 11.7848 10.9686C11.6632 10.8656 11.5362 10.7693 11.4042 10.68C11.068 9.50339 11.0537 8.25811 11.3627 7.07404C10.0018 7.73327 8.79251 8.66784 7.81148 9.81861H7.80463C7.21993 9.07746 7.26104 6.63361 7.29454 6.12314C7.12157 6.19266 6.95645 6.28032 6.80196 6.38466C6.2858 6.75304 5.80326 7.1664 5.36002 7.61991C4.85491 8.13201 4.39359 8.68553 3.98088 9.27464C3.03247 10.619 2.35972 12.1375 2.00144 13.7432L1.98164 13.8407C1.95386 13.9705 1.82938 14.6298 1.81149 14.7714C1.69763 15.452 1.62492 16.1388 1.59375 16.8281V16.9042C1.60027 20.5961 2.99062 24.1514 5.49034 26.8682C7.99006 29.5851 11.4175 31.2661 15.096 31.5794C18.7746 31.8927 22.4369 30.8156 25.3601 28.5606C28.2833 26.3056 30.2549 23.0367 30.8857 19.3991C30.9104 19.2088 30.9306 19.0203 30.9527 18.8281C31.2566 16.3165 30.9276 13.7687 29.9957 11.4166L29.9964 11.4159Z" fill="url(#paint11_linear_934_92437)"/>
</g>
</g>
<defs>
<linearGradient id="paint0_linear_934_92437" x1="28.0444" y1="5.91756" x2="3.5515" y2="29.549" gradientUnits="userSpaceOnUse">
<stop offset="0.048" stop-color="#FFF44F"/>
<stop offset="0.111" stop-color="#FFE847"/>
<stop offset="0.225" stop-color="#FFC830"/>
<stop offset="0.368" stop-color="#FF980E"/>
<stop offset="0.401" stop-color="#FF8B16"/>
<stop offset="0.462" stop-color="#FF672A"/>
<stop offset="0.534" stop-color="#FF3647"/>
<stop offset="0.705" stop-color="#E31587"/>
</linearGradient>
<radialGradient id="paint1_radial_934_92437" cx="0" cy="0" r="1" gradientUnits="userSpaceOnUse" gradientTransform="translate(27.0974 4.62678) scale(30.7575 30.7575)">
<stop offset="0.129" stop-color="#FFBD4F"/>
<stop offset="0.186" stop-color="#FFAC31"/>
<stop offset="0.247" stop-color="#FF9D17"/>
<stop offset="0.283" stop-color="#FF980E"/>
<stop offset="0.403" stop-color="#FF563B"/>
<stop offset="0.467" stop-color="#FF3750"/>
<stop offset="0.71" stop-color="#F5156C"/>
<stop offset="0.782" stop-color="#EB0878"/>
<stop offset="0.86" stop-color="#E50080"/>
</radialGradient>
<radialGradient id="paint2_radial_934_92437" cx="0" cy="0" r="1" gradientUnits="userSpaceOnUse" gradientTransform="translate(15.6776 17.1886) scale(30.7575 30.7575)">
<stop offset="0.3" stop-color="#960E18"/>
<stop offset="0.351" stop-color="#B11927" stop-opacity="0.74"/>
<stop offset="0.435" stop-color="#DB293D" stop-opacity="0.343"/>
<stop offset="0.497" stop-color="#F5334B" stop-opacity="0.094"/>
<stop offset="0.53" stop-color="#FF3750" stop-opacity="0"/>
</radialGradient>
<radialGradient id="paint3_radial_934_92437" cx="0" cy="0" r="1" gradientUnits="userSpaceOnUse" gradientTransform="translate(19.4836 -2.22283) scale(22.2801)">
<stop offset="0.132" stop-color="#FFF44F"/>
<stop offset="0.252" stop-color="#FFDC3E"/>
<stop offset="0.506" stop-color="#FF9D12"/>
<stop offset="0.526" stop-color="#FF980E"/>
</radialGradient>
<radialGradient id="paint4_radial_934_92437" cx="0" cy="0" r="1" gradientUnits="userSpaceOnUse" gradientTransform="translate(12.2505 25.1842) scale(14.6441 14.6441)">
<stop offset="0.353" stop-color="#3A8EE6"/>
<stop offset="0.472" stop-color="#5C79F0"/>
<stop offset="0.669" stop-color="#9059FF"/>
<stop offset="1" stop-color="#C139E6"/>
</radialGradient>
<radialGradient id="paint5_radial_934_92437" cx="0" cy="0" r="1" gradientUnits="userSpaceOnUse" gradientTransform="translate(17.1641 14.55) rotate(-13.5916) scale(7.76553 9.0915)">
<stop offset="0.206" stop-color="#9059FF" stop-opacity="0"/>
<stop offset="0.278" stop-color="#8C4FF3" stop-opacity="0.064"/>
<stop offset="0.747" stop-color="#7716A8" stop-opacity="0.45"/>
<stop offset="0.975" stop-color="#6E008B" stop-opacity="0.6"/>
</radialGradient>
<radialGradient id="paint6_radial_934_92437" cx="0" cy="0" r="1" gradientUnits="userSpaceOnUse" gradientTransform="translate(15.2953 3.48524) scale(10.5367 10.5367)">
<stop stop-color="#FFE226"/>
<stop offset="0.121" stop-color="#FFDB27"/>
<stop offset="0.295" stop-color="#FFC82A"/>
<stop offset="0.502" stop-color="#FFA930"/>
<stop offset="0.732" stop-color="#FF7E37"/>
<stop offset="0.792" stop-color="#FF7139"/>
</radialGradient>
<radialGradient id="paint7_radial_934_92437" cx="0" cy="0" r="1" gradientUnits="userSpaceOnUse" gradientTransform="translate(23.6702 -3.36604) scale(44.9561 44.9561)">
<stop offset="0.113" stop-color="#FFF44F"/>
<stop offset="0.456" stop-color="#FF980E"/>
<stop offset="0.622" stop-color="#FF5634"/>
<stop offset="0.716" stop-color="#FF3647"/>
<stop offset="0.904" stop-color="#E31587"/>
</radialGradient>
<radialGradient id="paint8_radial_934_92437" cx="0" cy="0" r="1" gradientUnits="userSpaceOnUse" gradientTransform="translate(19.9345 -0.873235) rotate(83.976) scale(32.9445 21.6212)">
<stop stop-color="#FFF44F"/>
<stop offset="0.06" stop-color="#FFE847"/>
<stop offset="0.168" stop-color="#FFC830"/>
<stop offset="0.304" stop-color="#FF980E"/>
<stop offset="0.356" stop-color="#FF8B16"/>
<stop offset="0.455" stop-color="#FF672A"/>
<stop offset="0.57" stop-color="#FF3647"/>
<stop offset="0.737" stop-color="#E31587"/>
</radialGradient>
<radialGradient id="paint9_radial_934_92437" cx="0" cy="0" r="1" gradientUnits="userSpaceOnUse" gradientTransform="translate(15.2969 7.29126) scale(28.0624 28.0624)">
<stop offset="0.137" stop-color="#FFF44F"/>
<stop offset="0.48" stop-color="#FF980E"/>
<stop offset="0.592" stop-color="#FF5634"/>
<stop offset="0.655" stop-color="#FF3647"/>
<stop offset="0.904" stop-color="#E31587"/>
</radialGradient>
<radialGradient id="paint10_radial_934_92437" cx="0" cy="0" r="1" gradientUnits="userSpaceOnUse" gradientTransform="translate(22.528 8.81477) scale(30.7156)">
<stop offset="0.094" stop-color="#FFF44F"/>
<stop offset="0.231" stop-color="#FFE141"/>
<stop offset="0.509" stop-color="#FFAF1E"/>
<stop offset="0.626" stop-color="#FF980E"/>
</radialGradient>
<linearGradient id="paint11_linear_934_92437" x1="27.7467" y1="5.79194" x2="6.90931" y2="26.6332" gradientUnits="userSpaceOnUse">
<stop offset="0.167" stop-color="#FFF44F" stop-opacity="0.8"/>
<stop offset="0.266" stop-color="#FFF44F" stop-opacity="0.634"/>
<stop offset="0.489" stop-color="#FFF44F" stop-opacity="0.217"/>
<stop offset="0.6" stop-color="#FFF44F" stop-opacity="0"/>
</linearGradient>
<clipPath id="clip0_934_92437">
<rect width="31" height="31" fill="white" transform="translate(0.828125 0.921875)"/>
</clipPath>
<clipPath id="clip1_934_92437">
<rect width="30.0115" height="31" fill="white" transform="translate(1.32422 0.921875)"/>
</clipPath>
</defs>
</svg>
